<svg width="48" height="68" viewBox="0 0 48 68" fill="none" xmlns="http://www.w3.org/2000/svg">
<path d="M24.1166 63.8442C23.6199 63.2546 23.0392 62.5551 22.3937 61.7598C20.2275 59.0907 17.3433 55.3562 14.464 51.0887C11.58 46.8142 8.73178 42.0502 6.6122 37.319C4.47793 32.555 3.16663 28.0077 3.16663 24.1167C3.16663 12.5329 12.5328 3.16666 24.1166 3.16666C35.7004 3.16666 45.0666 12.5329 45.0666 24.1167C45.0666 28.0077 43.7553 32.555 41.6211 37.319C39.5015 42.0502 36.6533 46.8142 33.7692 51.0887C30.89 55.3562 28.0058 59.0907 25.8395 61.7598C25.1941 62.5551 24.6133 63.2546 24.1166 63.8442ZM13.2416 24.1167C13.2416 30.1204 18.1129 34.9917 24.1166 34.9917C30.1203 34.9917 34.9916 30.1204 34.9916 24.1167C34.9916 18.113 30.1203 13.2417 24.1166 13.2417C18.1129 13.2417 13.2416 18.113 13.2416 24.1167Z" fill="white" stroke="#0E2869" stroke-width="5"/>
<mask id="mask0_62_1092" style="mask-type:alpha" maskUnits="userSpaceOnUse" x="8" y="8" width="32" height="32">
<circle cx="24.1167" cy="23.9704" r="15.4615" fill="#0E2869"/>
</mask>
<g mask="url(#mask0_62_1092)">
<path d="M39.5782 23.9704C39.5782 32.5096 32.6559 39.4319 24.1167 39.4319C15.5775 39.4319 8.65515 32.5096 8.65515 23.9704C8.65515 15.4312 15.5775 8.50887 24.1167 8.50887C32.6559 8.50887 39.5782 15.4312 39.5782 23.9704Z" fill="#0E2869"/>
<rect x="11.9464" y="38.4757" width="27.0873" height="27.0873" transform="rotate(-45 11.9464 38.4757)" fill="#0E2869" stroke="white" stroke-width="3"/>
<path d="M-1.92714 41.4844L17.2265 22.3308L36.3801 41.4844L17.2265 60.6381L-1.92714 41.4844Z" fill="#0E2869" stroke="white" stroke-width="3"/>
</g>
</svg>
